<svg xmlns="http://www.w3.org/2000/svg" version="1.1" xmlns:xlink="http://www.w3.org/1999/xlink" xmlns:svgjs="http://svgjs.com/svgjs" width="1440" height="560" preserveAspectRatio="none" viewBox="0 0 1440 560"><g mask="url(&quot;#SvgjsMask1000&quot;)" fill="none"><rect width="1440" height="560" x="0" y="0" fill="#0e2a47"></rect><path d="M-92.57 390.74L-92.57 390.74" stroke="#132e65" stroke-width="1.5"></path><path d="M-92.57 390.74L-53.15 558.86" stroke="#132e65" stroke-width="1.5"></path><path d="M-92.57 390.74L91.01 351.25" stroke="#132e65" stroke-width="1.5"></path><path d="M-92.57 390.74L59.3 547.24" stroke="#132e65" stroke-width="1.5"></path><path d="M-53.15 558.86L-53.15 558.86" stroke="#132e65" stroke-width="1.5"></path><path d="M-53.15 558.86L59.3 547.24" stroke="#132e65" stroke-width="1.5"></path><path d="M-53.15 558.86L-59.52 683.6" stroke="#132e65" stroke-width="1.5"></path><path d="M-59.52 683.6L-59.52 683.6" stroke="#132e65" stroke-width="1.5"></path><path d="M91.01 351.25L91.01 351.25" stroke="#132e65" stroke-width="1.5"></path><path d="M91.01 351.25L250.85 412.49" stroke="#132e65" stroke-width="1.5"></path><path d="M91.01 351.25L198.82 491.7" stroke="#132e65" stroke-width="1.5"></path><path d="M91.01 351.25L59.3 547.24" stroke="#132e65" stroke-width="1.5"></path><path d="M91.01 351.25L-53.15 558.86" stroke="#132e65" stroke-width="1.5"></path><path d="M91.01 351.25L367.02 388.95" stroke="#132e65" stroke-width="1.5"></path><path d="M59.3 547.24L59.3 547.24" stroke="#132e65" stroke-width="1.5"></path><path d="M59.3 547.24L198.82 491.7" stroke="#132e65" stroke-width="1.5"></path><path d="M97.78 704.32L97.78 704.32" stroke="#132e65" stroke-width="1.5"></path><path d="M97.78 704.32L251.51 686.85" stroke="#132e65" stroke-width="1.5"></path><path d="M97.78 704.32L-59.52 683.6" stroke="#132e65" stroke-width="1.5"></path><path d="M97.78 704.32L59.3 547.24" stroke="#132e65" stroke-width="1.5"></path><path d="M97.78 704.32L-53.15 558.86" stroke="#132e65" stroke-width="1.5"></path><path d="M250.85 412.49L250.85 412.49" stroke="#132e65" stroke-width="1.5"></path><path d="M250.85 412.49L198.82 491.7" stroke="#132e65" stroke-width="1.5"></path><path d="M250.85 412.49L367.02 388.95" stroke="#132e65" stroke-width="1.5"></path><path d="M250.85 412.49L384.64 560.19" stroke="#132e65" stroke-width="1.5"></path><path d="M250.85 412.49L59.3 547.24" stroke="#132e65" stroke-width="1.5"></path><path d="M250.85 412.49L340.7 653.14" stroke="#132e65" stroke-width="1.5"></path><path d="M198.82 491.7L198.82 491.7" stroke="#132e65" stroke-width="1.5"></path><path d="M198.82 491.7L367.02 388.95" stroke="#132e65" stroke-width="1.5"></path><path d="M198.82 491.7L384.64 560.19" stroke="#132e65" stroke-width="1.5"></path><path d="M198.82 491.7L251.51 686.85" stroke="#132e65" stroke-width="1.5"></path><path d="M251.51 686.85L251.51 686.85" stroke="#132e65" stroke-width="1.5"></path><path d="M251.51 686.85L340.7 653.14" stroke="#132e65" stroke-width="1.5"></path><path d="M251.51 686.85L384.64 560.19" stroke="#132e65" stroke-width="1.5"></path><path d="M251.51 686.85L59.3 547.24" stroke="#132e65" stroke-width="1.5"></path><path d="M367.02 388.95L367.02 388.95" stroke="#132e65" stroke-width="1.5"></path><path d="M367.02 388.95L384.64 560.19" stroke="#132e65" stroke-width="1.5"></path><path d="M367.02 388.95L550.4 399.82" stroke="#132e65" stroke-width="1.5"></path><path d="M367.02 388.95L490.46 526.82" stroke="#132e65" stroke-width="1.5"></path><path d="M367.02 388.95L340.7 653.14" stroke="#132e65" stroke-width="1.5"></path><path d="M384.64 560.19L384.64 560.19" stroke="#132e65" stroke-width="1.5"></path><path d="M384.64 560.19L340.7 653.14" stroke="#132e65" stroke-width="1.5"></path><path d="M384.64 560.19L490.46 526.82" stroke="#132e65" stroke-width="1.5"></path><path d="M384.64 560.19L553.15 650.59" stroke="#132e65" stroke-width="1.5"></path><path d="M340.7 653.14L340.7 653.14" stroke="#132e65" stroke-width="1.5"></path><path d="M550.4 399.82L550.4 399.82" stroke="#132e65" stroke-width="1.5"></path><path d="M550.4 399.82L651.05 407.79" stroke="#132e65" stroke-width="1.5"></path><path d="M550.4 399.82L490.46 526.82" stroke="#132e65" stroke-width="1.5"></path><path d="M550.4 399.82L662.49 552.87" stroke="#132e65" stroke-width="1.5"></path><path d="M550.4 399.82L641.67 230.98" stroke="#132e65" stroke-width="1.5"></path><path d="M550.4 399.82L384.64 560.19" stroke="#132e65" stroke-width="1.5"></path><path d="M490.46 526.82L490.46 526.82" stroke="#132e65" stroke-width="1.5"></path><path d="M490.46 526.82L553.15 650.59" stroke="#132e65" stroke-width="1.5"></path><path d="M490.46 526.82L662.49 552.87" stroke="#132e65" stroke-width="1.5"></path><path d="M490.46 526.82L340.7 653.14" stroke="#132e65" stroke-width="1.5"></path><path d="M553.15 650.59L553.15 650.59" stroke="#132e65" stroke-width="1.5"></path><path d="M553.15 650.59L662.49 552.87" stroke="#132e65" stroke-width="1.5"></path><path d="M553.15 650.59L699.56 691.42" stroke="#132e65" stroke-width="1.5"></path><path d="M641.67 230.98L641.67 230.98" stroke="#132e65" stroke-width="1.5"></path><path d="M641.67 230.98L813.73 239.12" stroke="#132e65" stroke-width="1.5"></path><path d="M641.67 230.98L651.05 407.79" stroke="#132e65" stroke-width="1.5"></path><path d="M641.67 230.98L856.46 351.68" stroke="#132e65" stroke-width="1.5"></path><path d="M651.05 407.79L651.05 407.79" stroke="#132e65" stroke-width="1.5"></path><path d="M651.05 407.79L662.49 552.87" stroke="#132e65" stroke-width="1.5"></path><path d="M651.05 407.79L490.46 526.82" stroke="#132e65" stroke-width="1.5"></path><path d="M651.05 407.79L856.46 351.68" stroke="#132e65" stroke-width="1.5"></path><path d="M651.05 407.79L834.69 547.73" stroke="#132e65" stroke-width="1.5"></path><path d="M662.49 552.87L662.49 552.87" stroke="#132e65" stroke-width="1.5"></path><path d="M662.49 552.87L699.56 691.42" stroke="#132e65" stroke-width="1.5"></path><path d="M699.56 691.42L699.56 691.42" stroke="#132e65" stroke-width="1.5"></path><path d="M699.56 691.42L815.34 655.23" stroke="#132e65" stroke-width="1.5"></path><path d="M699.56 691.42L834.69 547.73" stroke="#132e65" stroke-width="1.5"></path><path d="M699.56 691.42L941.29 664.51" stroke="#132e65" stroke-width="1.5"></path><path d="M813.73 239.12L813.73 239.12" stroke="#132e65" stroke-width="1.5"></path><path d="M813.73 239.12L856.46 351.68" stroke="#132e65" stroke-width="1.5"></path><path d="M856.46 351.68L856.46 351.68" stroke="#132e65" stroke-width="1.5"></path><path d="M856.46 351.68L834.69 547.73" stroke="#132e65" stroke-width="1.5"></path><path d="M856.46 351.68L980.38 528.69" stroke="#132e65" stroke-width="1.5"></path><path d="M856.46 351.68L1123.79 348.56" stroke="#132e65" stroke-width="1.5"></path><path d="M834.69 547.73L834.69 547.73" stroke="#132e65" stroke-width="1.5"></path><path d="M834.69 547.73L815.34 655.23" stroke="#132e65" stroke-width="1.5"></path><path d="M834.69 547.73L980.38 528.69" stroke="#132e65" stroke-width="1.5"></path><path d="M834.69 547.73L941.29 664.51" stroke="#132e65" stroke-width="1.5"></path><path d="M834.69 547.73L662.49 552.87" stroke="#132e65" stroke-width="1.5"></path><path d="M815.34 655.23L815.34 655.23" stroke="#132e65" stroke-width="1.5"></path><path d="M815.34 655.23L941.29 664.51" stroke="#132e65" stroke-width="1.5"></path><path d="M815.34 655.23L662.49 552.87" stroke="#132e65" stroke-width="1.5"></path><path d="M995.13 -107.12L995.13 -107.12" stroke="#132e65" stroke-width="1.5"></path><path d="M995.13 -107.12L1154.26 -74.75" stroke="#132e65" stroke-width="1.5"></path><path d="M995.13 -107.12L999.43 83.38" stroke="#132e65" stroke-width="1.5"></path><path d="M999.43 83.38L999.43 83.38" stroke="#132e65" stroke-width="1.5"></path><path d="M999.43 83.38L1135.8 90.64" stroke="#132e65" stroke-width="1.5"></path><path d="M999.43 83.38L1113.04 257.83" stroke="#132e65" stroke-width="1.5"></path><path d="M980.38 528.69L980.38 528.69" stroke="#132e65" stroke-width="1.5"></path><path d="M980.38 528.69L1093.14 489.86" stroke="#132e65" stroke-width="1.5"></path><path d="M980.38 528.69L941.29 664.51" stroke="#132e65" stroke-width="1.5"></path><path d="M941.29 664.51L941.29 664.51" stroke="#132e65" stroke-width="1.5"></path><path d="M1154.26 -74.75L1154.26 -74.75" stroke="#132e65" stroke-width="1.5"></path><path d="M1154.26 -74.75L1135.8 90.64" stroke="#132e65" stroke-width="1.5"></path><path d="M1154.26 -74.75L1278.59 88.55" stroke="#132e65" stroke-width="1.5"></path><path d="M1154.26 -74.75L999.43 83.38" stroke="#132e65" stroke-width="1.5"></path><path d="M1154.26 -74.75L1431.98 -88.3" stroke="#132e65" stroke-width="1.5"></path><path d="M1135.8 90.64L1135.8 90.64" stroke="#132e65" stroke-width="1.5"></path><path d="M1135.8 90.64L1278.59 88.55" stroke="#132e65" stroke-width="1.5"></path><path d="M1135.8 90.64L1113.04 257.83" stroke="#132e65" stroke-width="1.5"></path><path d="M1113.04 257.83L1113.04 257.83" stroke="#132e65" stroke-width="1.5"></path><path d="M1113.04 257.83L1123.79 348.56" stroke="#132e65" stroke-width="1.5"></path><path d="M1113.04 257.83L1240.41 357.65" stroke="#132e65" stroke-width="1.5"></path><path d="M1123.79 348.56L1123.79 348.56" stroke="#132e65" stroke-width="1.5"></path><path d="M1123.79 348.56L1240.41 357.65" stroke="#132e65" stroke-width="1.5"></path><path d="M1123.79 348.56L1093.14 489.86" stroke="#132e65" stroke-width="1.5"></path><path d="M1123.79 348.56L1294 198.55" stroke="#132e65" stroke-width="1.5"></path><path d="M1123.79 348.56L980.38 528.69" stroke="#132e65" stroke-width="1.5"></path><path d="M1093.14 489.86L1093.14 489.86" stroke="#132e65" stroke-width="1.5"></path><path d="M1093.14 489.86L1139.5 679.64" stroke="#132e65" stroke-width="1.5"></path><path d="M1139.5 679.64L1139.5 679.64" stroke="#132e65" stroke-width="1.5"></path><path d="M1139.5 679.64L1302.32 703.32" stroke="#132e65" stroke-width="1.5"></path><path d="M1278.59 88.55L1278.59 88.55" stroke="#132e65" stroke-width="1.5"></path><path d="M1278.59 88.55L1294 198.55" stroke="#132e65" stroke-width="1.5"></path><path d="M1278.59 88.55L1446.69 80.92" stroke="#132e65" stroke-width="1.5"></path><path d="M1294 198.55L1294 198.55" stroke="#132e65" stroke-width="1.5"></path><path d="M1294 198.55L1240.41 357.65" stroke="#132e65" stroke-width="1.5"></path><path d="M1240.41 357.65L1240.41 357.65" stroke="#132e65" stroke-width="1.5"></path><path d="M1240.41 357.65L1093.14 489.86" stroke="#132e65" stroke-width="1.5"></path><path d="M1240.41 357.65L1308.29 549.6" stroke="#132e65" stroke-width="1.5"></path><path d="M1308.29 549.6L1308.29 549.6" stroke="#132e65" stroke-width="1.5"></path><path d="M1308.29 549.6L1456.66 536.05" stroke="#132e65" stroke-width="1.5"></path><path d="M1308.29 549.6L1302.32 703.32" stroke="#132e65" stroke-width="1.5"></path><path d="M1302.32 703.32L1302.32 703.32" stroke="#132e65" stroke-width="1.5"></path><path d="M1302.32 703.32L1396.12 696.25" stroke="#132e65" stroke-width="1.5"></path><path d="M1431.98 -88.3L1431.98 -88.3" stroke="#132e65" stroke-width="1.5"></path><path d="M1431.98 -88.3L1550.6 -42.09" stroke="#132e65" stroke-width="1.5"></path><path d="M1431.98 -88.3L1446.69 80.92" stroke="#132e65" stroke-width="1.5"></path><path d="M1431.98 -88.3L1579.66 79.62" stroke="#132e65" stroke-width="1.5"></path><path d="M1446.69 80.92L1446.69 80.92" stroke="#132e65" stroke-width="1.5"></path><path d="M1446.69 80.92L1579.66 79.62" stroke="#132e65" stroke-width="1.5"></path><path d="M1446.69 80.92L1550.6 -42.09" stroke="#132e65" stroke-width="1.5"></path><path d="M1446.69 80.92L1294 198.55" stroke="#132e65" stroke-width="1.5"></path><path d="M1446.69 80.92L1597.78 235.16" stroke="#132e65" stroke-width="1.5"></path><path d="M1461.86 386.42L1461.86 386.42" stroke="#132e65" stroke-width="1.5"></path><path d="M1461.86 386.42L1589.57 374.72" stroke="#132e65" stroke-width="1.5"></path><path d="M1461.86 386.42L1548.36 493.9" stroke="#132e65" stroke-width="1.5"></path><path d="M1461.86 386.42L1456.66 536.05" stroke="#132e65" stroke-width="1.5"></path><path d="M1461.86 386.42L1597.78 235.16" stroke="#132e65" stroke-width="1.5"></path><path d="M1456.66 536.05L1456.66 536.05" stroke="#132e65" stroke-width="1.5"></path><path d="M1456.66 536.05L1548.36 493.9" stroke="#132e65" stroke-width="1.5"></path><path d="M1456.66 536.05L1396.12 696.25" stroke="#132e65" stroke-width="1.5"></path><path d="M1396.12 696.25L1396.12 696.25" stroke="#132e65" stroke-width="1.5"></path><path d="M1396.12 696.25L1308.29 549.6" stroke="#132e65" stroke-width="1.5"></path><path d="M1396.12 696.25L1590.91 684.33" stroke="#132e65" stroke-width="1.5"></path><path d="M1396.12 696.25L1548.36 493.9" stroke="#132e65" stroke-width="1.5"></path><path d="M1396.12 696.25L1139.5 679.64" stroke="#132e65" stroke-width="1.5"></path><path d="M1550.6 -42.09L1550.6 -42.09" stroke="#132e65" stroke-width="1.5"></path><path d="M1550.6 -42.09L1579.66 79.62" stroke="#132e65" stroke-width="1.5"></path><path d="M1579.66 79.62L1579.66 79.62" stroke="#132e65" stroke-width="1.5"></path><path d="M1597.78 235.16L1597.78 235.16" stroke="#132e65" stroke-width="1.5"></path><path d="M1597.78 235.16L1589.57 374.72" stroke="#132e65" stroke-width="1.5"></path><path d="M1597.78 235.16L1579.66 79.62" stroke="#132e65" stroke-width="1.5"></path><path d="M1589.57 374.72L1589.57 374.72" stroke="#132e65" stroke-width="1.5"></path><path d="M1589.57 374.72L1548.36 493.9" stroke="#132e65" stroke-width="1.5"></path><path d="M1548.36 493.9L1548.36 493.9" stroke="#132e65" stroke-width="1.5"></path><path d="M1548.36 493.9L1590.91 684.33" stroke="#132e65" stroke-width="1.5"></path><path d="M1548.36 493.9L1308.29 549.6" stroke="#132e65" stroke-width="1.5"></path><path d="M1590.91 684.33L1590.91 684.33" stroke="#132e65" stroke-width="1.5"></path><path d="M1590.91 684.33L1456.66 536.05" stroke="#132e65" stroke-width="1.5"></path><circle r="5" cx="-92.57" cy="390.74" fill="#132e65"></circle><circle r="5" cx="-53.15" cy="558.86" fill="#132e65"></circle><circle r="5" cx="-59.52" cy="683.6" fill="#132e65"></circle><circle r="5" cx="91.01" cy="351.25" fill="#132e65"></circle><circle r="5" cx="59.3" cy="547.24" fill="#132e65"></circle><circle r="5" cx="97.78" cy="704.32" fill="#132e65"></circle><circle r="5" cx="250.85" cy="412.49" fill="#132e65"></circle><circle r="5" cx="198.82" cy="491.7" fill="#132e65"></circle><circle r="5" cx="251.51" cy="686.85" fill="#132e65"></circle><circle r="5" cx="367.02" cy="388.95" fill="#132e65"></circle><circle r="5" cx="384.64" cy="560.19" fill="#132e65"></circle><circle r="5" cx="340.7" cy="653.14" fill="#132e65"></circle><circle r="5" cx="550.4" cy="399.82" fill="#132e65"></circle><circle r="5" cx="490.46" cy="526.82" fill="#132e65"></circle><circle r="5" cx="553.15" cy="650.59" fill="#132e65"></circle><circle r="5" cx="641.67" cy="230.98" fill="#132e65"></circle><circle r="5" cx="651.05" cy="407.79" fill="#132e65"></circle><circle r="5" cx="662.49" cy="552.87" fill="#132e65"></circle><circle r="5" cx="699.56" cy="691.42" fill="#132e65"></circle><circle r="5" cx="813.73" cy="239.12" fill="#132e65"></circle><circle r="5" cx="856.46" cy="351.68" fill="#132e65"></circle><circle r="5" cx="834.69" cy="547.73" fill="#132e65"></circle><circle r="5" cx="815.34" cy="655.23" fill="#132e65"></circle><circle r="5" cx="995.13" cy="-107.12" fill="#132e65"></circle><circle r="5" cx="999.43" cy="83.38" fill="#132e65"></circle><circle r="5" cx="980.38" cy="528.69" fill="#132e65"></circle><circle r="5" cx="941.29" cy="664.51" fill="#132e65"></circle><circle r="5" cx="1154.26" cy="-74.75" fill="#132e65"></circle><circle r="5" cx="1135.8" cy="90.64" fill="#132e65"></circle><circle r="5" cx="1113.04" cy="257.83" fill="#132e65"></circle><circle r="5" cx="1123.79" cy="348.56" fill="#132e65"></circle><circle r="5" cx="1093.14" cy="489.86" fill="#132e65"></circle><circle r="5" cx="1139.5" cy="679.64" fill="#132e65"></circle><circle r="5" cx="1278.59" cy="88.55" fill="#132e65"></circle><circle r="5" cx="1294" cy="198.55" fill="#132e65"></circle><circle r="5" cx="1240.41" cy="357.65" fill="#132e65"></circle><circle r="5" cx="1308.29" cy="549.6" fill="#132e65"></circle><circle r="5" cx="1302.32" cy="703.32" fill="#132e65"></circle><circle r="5" cx="1431.98" cy="-88.3" fill="#132e65"></circle><circle r="5" cx="1446.69" cy="80.92" fill="#132e65"></circle><circle r="5" cx="1461.86" cy="386.42" fill="#132e65"></circle><circle r="5" cx="1456.66" cy="536.05" fill="#132e65"></circle><circle r="5" cx="1396.12" cy="696.25" fill="#132e65"></circle><circle r="5" cx="1550.6" cy="-42.09" fill="#132e65"></circle><circle r="5" cx="1579.66" cy="79.62" fill="#132e65"></circle><circle r="5" cx="1597.78" cy="235.16" fill="#132e65"></circle><circle r="5" cx="1589.57" cy="374.72" fill="#132e65"></circle><circle r="5" cx="1548.36" cy="493.9" fill="#132e65"></circle><circle r="5" cx="1590.91" cy="684.33" fill="#132e65"></circle><path d="M104.86 712.25L104.86 712.25" stroke="hsl(228.5, 77.2%, 51.5%)" stroke-width="1.5"></path><path d="M104.86 712.25L223.68 647.5" stroke="hsl(228.5, 77.2%, 51.5%)" stroke-width="1.5"></path><path d="M223.68 647.5L223.68 647.5" stroke="hsl(228.5, 77.2%, 51.5%)" stroke-width="1.5"></path><path d="M223.68 647.5L194.35 542.94" stroke="hsl(228.5, 77.2%, 51.5%)" stroke-width="1.5"></path><path d="M223.68 647.5L337.82 533.92" stroke="hsl(228.5, 77.2%, 51.5%)" stroke-width="1.5"></path><path d="M223.68 647.5L389.03 698.56" stroke="hsl(228.5, 77.2%, 51.5%)" stroke-width="1.5"></path><path d="M223.68 647.5L59.44 495.75" stroke="hsl(228.5, 77.2%, 51.5%)" stroke-width="1.5"></path><path d="M223.68 647.5L546.69 651.16" stroke="hsl(228.5, 77.2%, 51.5%)" stroke-width="1.5"></path><path d="M809.62 664.18L809.62 664.18" stroke="hsl(228.5, 77.2%, 51.5%)" stroke-width="1.5"></path><path d="M809.62 664.18L853.06 536.44" stroke="hsl(228.5, 77.2%, 51.5%)" stroke-width="1.5"></path><path d="M809.62 664.18L649.89 640.97" stroke="hsl(228.5, 77.2%, 51.5%)" stroke-width="1.5"></path><path d="M809.62 664.18L710.82 532.23" stroke="hsl(228.5, 77.2%, 51.5%)" stroke-width="1.5"></path><path d="M1293.26 217.55L1293.26 217.55" stroke="hsl(228.5, 77.2%, 51.5%)" stroke-width="1.5"></path><path d="M1293.26 217.55L1403.5 243.36" stroke="hsl(228.5, 77.2%, 51.5%)" stroke-width="1.5"></path><path d="M1293.26 217.55L1389.71 104.29" stroke="hsl(228.5, 77.2%, 51.5%)" stroke-width="1.5"></path><path d="M1405.9 558.53L1405.9 558.53" stroke="hsl(228.5, 77.2%, 51.5%)" stroke-width="1.5"></path><path d="M1405.9 558.53L1312.07 506.81" stroke="hsl(228.5, 77.2%, 51.5%)" stroke-width="1.5"></path><path d="M1405.9 558.53L1400.8 704.68" stroke="hsl(228.5, 77.2%, 51.5%)" stroke-width="1.5"></path><path d="M1405.9 558.53L1413.43 406.61" stroke="hsl(228.5, 77.2%, 51.5%)" stroke-width="1.5"></path><path d="M1405.9 558.53L1571.07 542.09" stroke="hsl(228.5, 77.2%, 51.5%)" stroke-width="1.5"></path><path d="M1405.9 558.53L1559.45 647.94" stroke="hsl(228.5, 77.2%, 51.5%)" stroke-width="1.5"></path><path d="M1405.9 558.53L1292.18 379.36" stroke="hsl(228.5, 77.2%, 51.5%)" stroke-width="1.5"></path><path d="M-77.06 495.78L-77.06 495.78" stroke="hsl(228.5, 77.2%, 51.5%)" stroke-width="1.5"></path><path d="M-77.06 495.78L59.44 495.75" stroke="hsl(228.5, 77.2%, 51.5%)" stroke-width="1.5"></path><path d="M-77.06 495.78L-107.44 676.27" stroke="hsl(228.5, 77.2%, 51.5%)" stroke-width="1.5"></path><path d="M-77.06 495.78L194.35 542.94" stroke="hsl(228.5, 77.2%, 51.5%)" stroke-width="1.5"></path><path d="M-77.06 495.78L104.86 712.25" stroke="hsl(228.5, 77.2%, 51.5%)" stroke-width="1.5"></path><path d="M-77.06 495.78L223.68 647.5" stroke="hsl(228.5, 77.2%, 51.5%)" stroke-width="1.5"></path><path d="M-107.44 676.27L-107.44 676.27" stroke="hsl(228.5, 77.2%, 51.5%)" stroke-width="1.5"></path><path d="M-107.44 676.27L104.86 712.25" stroke="hsl(228.5, 77.2%, 51.5%)" stroke-width="1.5"></path><path d="M-107.44 676.27L59.44 495.75" stroke="hsl(228.5, 77.2%, 51.5%)" stroke-width="1.5"></path><path d="M-107.44 676.27L194.35 542.94" stroke="hsl(228.5, 77.2%, 51.5%)" stroke-width="1.5"></path><path d="M-107.44 676.27L223.68 647.5" stroke="hsl(228.5, 77.2%, 51.5%)" stroke-width="1.5"></path><path d="M-107.44 676.27L337.82 533.92" stroke="hsl(228.5, 77.2%, 51.5%)" stroke-width="1.5"></path><path d="M59.44 495.75L59.44 495.75" stroke="hsl(228.5, 77.2%, 51.5%)" stroke-width="1.5"></path><path d="M59.44 495.75L194.35 542.94" stroke="hsl(228.5, 77.2%, 51.5%)" stroke-width="1.5"></path><path d="M59.44 495.75L104.86 712.25" stroke="hsl(228.5, 77.2%, 51.5%)" stroke-width="1.5"></path><path d="M59.44 495.75L337.82 533.92" stroke="hsl(228.5, 77.2%, 51.5%)" stroke-width="1.5"></path><path d="M194.35 542.94L194.35 542.94" stroke="hsl(228.5, 77.2%, 51.5%)" stroke-width="1.5"></path><path d="M194.35 542.94L337.82 533.92" stroke="hsl(228.5, 77.2%, 51.5%)" stroke-width="1.5"></path><path d="M194.35 542.94L104.86 712.25" stroke="hsl(228.5, 77.2%, 51.5%)" stroke-width="1.5"></path><path d="M194.35 542.94L389.03 698.56" stroke="hsl(228.5, 77.2%, 51.5%)" stroke-width="1.5"></path><path d="M337.82 533.92L337.82 533.92" stroke="hsl(228.5, 77.2%, 51.5%)" stroke-width="1.5"></path><path d="M389.03 698.56L389.03 698.56" stroke="hsl(228.5, 77.2%, 51.5%)" stroke-width="1.5"></path><path d="M389.03 698.56L546.69 651.16" stroke="hsl(228.5, 77.2%, 51.5%)" stroke-width="1.5"></path><path d="M389.03 698.56L337.82 533.92" stroke="hsl(228.5, 77.2%, 51.5%)" stroke-width="1.5"></path><path d="M389.03 698.56L558.28 545.45" stroke="hsl(228.5, 77.2%, 51.5%)" stroke-width="1.5"></path><path d="M558.28 545.45L558.28 545.45" stroke="hsl(228.5, 77.2%, 51.5%)" stroke-width="1.5"></path><path d="M558.28 545.45L546.69 651.16" stroke="hsl(228.5, 77.2%, 51.5%)" stroke-width="1.5"></path><path d="M558.28 545.45L649.89 640.97" stroke="hsl(228.5, 77.2%, 51.5%)" stroke-width="1.5"></path><path d="M558.28 545.45L710.82 532.23" stroke="hsl(228.5, 77.2%, 51.5%)" stroke-width="1.5"></path><path d="M558.28 545.45L337.82 533.92" stroke="hsl(228.5, 77.2%, 51.5%)" stroke-width="1.5"></path><path d="M558.28 545.45L809.62 664.18" stroke="hsl(228.5, 77.2%, 51.5%)" stroke-width="1.5"></path><path d="M546.69 651.16L546.69 651.16" stroke="hsl(228.5, 77.2%, 51.5%)" stroke-width="1.5"></path><path d="M546.69 651.16L649.89 640.97" stroke="hsl(228.5, 77.2%, 51.5%)" stroke-width="1.5"></path><path d="M546.69 651.16L710.82 532.23" stroke="hsl(228.5, 77.2%, 51.5%)" stroke-width="1.5"></path><path d="M546.69 651.16L337.82 533.92" stroke="hsl(228.5, 77.2%, 51.5%)" stroke-width="1.5"></path><path d="M546.69 651.16L809.62 664.18" stroke="hsl(228.5, 77.2%, 51.5%)" stroke-width="1.5"></path><path d="M710.82 532.23L710.82 532.23" stroke="hsl(228.5, 77.2%, 51.5%)" stroke-width="1.5"></path><path d="M710.82 532.23L649.89 640.97" stroke="hsl(228.5, 77.2%, 51.5%)" stroke-width="1.5"></path><path d="M710.82 532.23L853.06 536.44" stroke="hsl(228.5, 77.2%, 51.5%)" stroke-width="1.5"></path><path d="M710.82 532.23L861.87 384.5" stroke="hsl(228.5, 77.2%, 51.5%)" stroke-width="1.5"></path><path d="M649.89 640.97L649.89 640.97" stroke="hsl(228.5, 77.2%, 51.5%)" stroke-width="1.5"></path><path d="M861.87 384.5L861.87 384.5" stroke="hsl(228.5, 77.2%, 51.5%)" stroke-width="1.5"></path><path d="M861.87 384.5L853.06 536.44" stroke="hsl(228.5, 77.2%, 51.5%)" stroke-width="1.5"></path><path d="M861.87 384.5L987.17 487.78" stroke="hsl(228.5, 77.2%, 51.5%)" stroke-width="1.5"></path><path d="M861.87 384.5L1113.43 384.76" stroke="hsl(228.5, 77.2%, 51.5%)" stroke-width="1.5"></path><path d="M861.87 384.5L809.62 664.18" stroke="hsl(228.5, 77.2%, 51.5%)" stroke-width="1.5"></path><path d="M853.06 536.44L853.06 536.44" stroke="hsl(228.5, 77.2%, 51.5%)" stroke-width="1.5"></path><path d="M853.06 536.44L987.17 487.78" stroke="hsl(228.5, 77.2%, 51.5%)" stroke-width="1.5"></path><path d="M987.17 487.78L987.17 487.78" stroke="hsl(228.5, 77.2%, 51.5%)" stroke-width="1.5"></path><path d="M987.17 487.78L1114.91 555.64" stroke="hsl(228.5, 77.2%, 51.5%)" stroke-width="1.5"></path><path d="M987.17 487.78L1113.43 384.76" stroke="hsl(228.5, 77.2%, 51.5%)" stroke-width="1.5"></path><path d="M987.17 487.78L984.98 712.39" stroke="hsl(228.5, 77.2%, 51.5%)" stroke-width="1.5"></path><path d="M984.98 712.39L984.98 712.39" stroke="hsl(228.5, 77.2%, 51.5%)" stroke-width="1.5"></path><path d="M984.98 712.39L1116.94 682.59" stroke="hsl(228.5, 77.2%, 51.5%)" stroke-width="1.5"></path><path d="M984.98 712.39L809.62 664.18" stroke="hsl(228.5, 77.2%, 51.5%)" stroke-width="1.5"></path><path d="M984.98 712.39L1114.91 555.64" stroke="hsl(228.5, 77.2%, 51.5%)" stroke-width="1.5"></path><path d="M984.98 712.39L853.06 536.44" stroke="hsl(228.5, 77.2%, 51.5%)" stroke-width="1.5"></path><path d="M1144.79 257.48L1144.79 257.48" stroke="hsl(228.5, 77.2%, 51.5%)" stroke-width="1.5"></path><path d="M1144.79 257.48L1113.43 384.76" stroke="hsl(228.5, 77.2%, 51.5%)" stroke-width="1.5"></path><path d="M1144.79 257.48L1293.26 217.55" stroke="hsl(228.5, 77.2%, 51.5%)" stroke-width="1.5"></path><path d="M1113.43 384.76L1113.43 384.76" stroke="hsl(228.5, 77.2%, 51.5%)" stroke-width="1.5"></path><path d="M1113.43 384.76L1114.91 555.64" stroke="hsl(228.5, 77.2%, 51.5%)" stroke-width="1.5"></path><path d="M1113.43 384.76L1292.18 379.36" stroke="hsl(228.5, 77.2%, 51.5%)" stroke-width="1.5"></path><path d="M1114.91 555.64L1114.91 555.64" stroke="hsl(228.5, 77.2%, 51.5%)" stroke-width="1.5"></path><path d="M1114.91 555.64L1116.94 682.59" stroke="hsl(228.5, 77.2%, 51.5%)" stroke-width="1.5"></path><path d="M1114.91 555.64L1312.07 506.81" stroke="hsl(228.5, 77.2%, 51.5%)" stroke-width="1.5"></path><path d="M1114.91 555.64L1292.18 379.36" stroke="hsl(228.5, 77.2%, 51.5%)" stroke-width="1.5"></path><path d="M1116.94 682.59L1116.94 682.59" stroke="hsl(228.5, 77.2%, 51.5%)" stroke-width="1.5"></path><path d="M1286.87 -107.22L1286.87 -107.22" stroke="hsl(228.5, 77.2%, 51.5%)" stroke-width="1.5"></path><path d="M1286.87 -107.22L1419.1 -53.11" stroke="hsl(228.5, 77.2%, 51.5%)" stroke-width="1.5"></path><path d="M1286.87 -107.22L1389.71 104.29" stroke="hsl(228.5, 77.2%, 51.5%)" stroke-width="1.5"></path><path d="M1286.87 -107.22L1544.36 -69.7" stroke="hsl(228.5, 77.2%, 51.5%)" stroke-width="1.5"></path><path d="M1286.87 -107.22L1293.26 217.55" stroke="hsl(228.5, 77.2%, 51.5%)" stroke-width="1.5"></path><path d="M1286.87 -107.22L1575.9 41.22" stroke="hsl(228.5, 77.2%, 51.5%)" stroke-width="1.5"></path><path d="M1286.87 -107.22L1403.5 243.36" stroke="hsl(228.5, 77.2%, 51.5%)" stroke-width="1.5"></path><path d="M1292.18 379.36L1292.18 379.36" stroke="hsl(228.5, 77.2%, 51.5%)" stroke-width="1.5"></path><path d="M1292.18 379.36L1413.43 406.61" stroke="hsl(228.5, 77.2%, 51.5%)" stroke-width="1.5"></path><path d="M1292.18 379.36L1312.07 506.81" stroke="hsl(228.5, 77.2%, 51.5%)" stroke-width="1.5"></path><path d="M1292.18 379.36L1293.26 217.55" stroke="hsl(228.5, 77.2%, 51.5%)" stroke-width="1.5"></path><path d="M1292.18 379.36L1403.5 243.36" stroke="hsl(228.5, 77.2%, 51.5%)" stroke-width="1.5"></path><path d="M1292.18 379.36L1144.79 257.48" stroke="hsl(228.5, 77.2%, 51.5%)" stroke-width="1.5"></path><path d="M1312.07 506.81L1312.07 506.81" stroke="hsl(228.5, 77.2%, 51.5%)" stroke-width="1.5"></path><path d="M1419.1 -53.11L1419.1 -53.11" stroke="hsl(228.5, 77.2%, 51.5%)" stroke-width="1.5"></path><path d="M1419.1 -53.11L1544.36 -69.7" stroke="hsl(228.5, 77.2%, 51.5%)" stroke-width="1.5"></path><path d="M1419.1 -53.11L1389.71 104.29" stroke="hsl(228.5, 77.2%, 51.5%)" stroke-width="1.5"></path><path d="M1419.1 -53.11L1575.9 41.22" stroke="hsl(228.5, 77.2%, 51.5%)" stroke-width="1.5"></path><path d="M1419.1 -53.11L1403.5 243.36" stroke="hsl(228.5, 77.2%, 51.5%)" stroke-width="1.5"></path><path d="M1419.1 -53.11L1293.26 217.55" stroke="hsl(228.5, 77.2%, 51.5%)" stroke-width="1.5"></path><path d="M1389.71 104.29L1389.71 104.29" stroke="hsl(228.5, 77.2%, 51.5%)" stroke-width="1.5"></path><path d="M1389.71 104.29L1403.5 243.36" stroke="hsl(228.5, 77.2%, 51.5%)" stroke-width="1.5"></path><path d="M1403.5 243.36L1403.5 243.36" stroke="hsl(228.5, 77.2%, 51.5%)" stroke-width="1.5"></path><path d="M1413.43 406.61L1413.43 406.61" stroke="hsl(228.5, 77.2%, 51.5%)" stroke-width="1.5"></path><path d="M1413.43 406.61L1312.07 506.81" stroke="hsl(228.5, 77.2%, 51.5%)" stroke-width="1.5"></path><path d="M1413.43 406.61L1403.5 243.36" stroke="hsl(228.5, 77.2%, 51.5%)" stroke-width="1.5"></path><path d="M1413.43 406.61L1575.31 370.82" stroke="hsl(228.5, 77.2%, 51.5%)" stroke-width="1.5"></path><path d="M1413.43 406.61L1571.07 542.09" stroke="hsl(228.5, 77.2%, 51.5%)" stroke-width="1.5"></path><path d="M1400.8 704.68L1400.8 704.68" stroke="hsl(228.5, 77.2%, 51.5%)" stroke-width="1.5"></path><path d="M1400.8 704.68L1559.45 647.94" stroke="hsl(228.5, 77.2%, 51.5%)" stroke-width="1.5"></path><path d="M1400.8 704.68L1312.07 506.81" stroke="hsl(228.5, 77.2%, 51.5%)" stroke-width="1.5"></path><path d="M1400.8 704.68L1571.07 542.09" stroke="hsl(228.5, 77.2%, 51.5%)" stroke-width="1.5"></path><path d="M1400.8 704.68L1116.94 682.59" stroke="hsl(228.5, 77.2%, 51.5%)" stroke-width="1.5"></path><path d="M1400.8 704.68L1413.43 406.61" stroke="hsl(228.5, 77.2%, 51.5%)" stroke-width="1.5"></path><path d="M1544.36 -69.7L1544.36 -69.7" stroke="hsl(228.5, 77.2%, 51.5%)" stroke-width="1.5"></path><path d="M1544.36 -69.7L1575.9 41.22" stroke="hsl(228.5, 77.2%, 51.5%)" stroke-width="1.5"></path><path d="M1544.36 -69.7L1389.71 104.29" stroke="hsl(228.5, 77.2%, 51.5%)" stroke-width="1.5"></path><path d="M1575.9 41.22L1575.9 41.22" stroke="hsl(228.5, 77.2%, 51.5%)" stroke-width="1.5"></path><path d="M1575.9 41.22L1594.96 192.37" stroke="hsl(228.5, 77.2%, 51.5%)" stroke-width="1.5"></path><path d="M1575.9 41.22L1389.71 104.29" stroke="hsl(228.5, 77.2%, 51.5%)" stroke-width="1.5"></path><path d="M1575.9 41.22L1403.5 243.36" stroke="hsl(228.5, 77.2%, 51.5%)" stroke-width="1.5"></path><path d="M1594.96 192.37L1594.96 192.37" stroke="hsl(228.5, 77.2%, 51.5%)" stroke-width="1.5"></path><path d="M1594.96 192.37L1575.31 370.82" stroke="hsl(228.5, 77.2%, 51.5%)" stroke-width="1.5"></path><path d="M1594.96 192.37L1403.5 243.36" stroke="hsl(228.5, 77.2%, 51.5%)" stroke-width="1.5"></path><path d="M1594.96 192.37L1389.71 104.29" stroke="hsl(228.5, 77.2%, 51.5%)" stroke-width="1.5"></path><path d="M1594.96 192.37L1544.36 -69.7" stroke="hsl(228.5, 77.2%, 51.5%)" stroke-width="1.5"></path><path d="M1594.96 192.37L1413.43 406.61" stroke="hsl(228.5, 77.2%, 51.5%)" stroke-width="1.5"></path><path d="M1575.31 370.82L1575.31 370.82" stroke="hsl(228.5, 77.2%, 51.5%)" stroke-width="1.5"></path><path d="M1575.31 370.82L1571.07 542.09" stroke="hsl(228.5, 77.2%, 51.5%)" stroke-width="1.5"></path><path d="M1575.31 370.82L1403.5 243.36" stroke="hsl(228.5, 77.2%, 51.5%)" stroke-width="1.5"></path><path d="M1571.07 542.09L1571.07 542.09" stroke="hsl(228.5, 77.2%, 51.5%)" stroke-width="1.5"></path><path d="M1571.07 542.09L1559.45 647.94" stroke="hsl(228.5, 77.2%, 51.5%)" stroke-width="1.5"></path><path d="M1559.45 647.94L1559.45 647.94" stroke="hsl(228.5, 77.2%, 51.5%)" stroke-width="1.5"></path><path d="M1559.45 647.94L1575.31 370.82" stroke="hsl(228.5, 77.2%, 51.5%)" stroke-width="1.5"></path><path d="M1559.45 647.94L1413.43 406.61" stroke="hsl(228.5, 77.2%, 51.5%)" stroke-width="1.5"></path><path d="M1559.45 647.94L1312.07 506.81" stroke="hsl(228.5, 77.2%, 51.5%)" stroke-width="1.5"></path><circle r="25" cx="104.86" cy="712.25" fill="url(#SvgjsRadialGradient1001)"></circle><circle r="25" cx="223.68" cy="647.5" fill="url(#SvgjsRadialGradient1001)"></circle><circle r="25" cx="809.62" cy="664.18" fill="url(#SvgjsRadialGradient1001)"></circle><circle r="25" cx="1293.26" cy="217.55" fill="url(#SvgjsRadialGradient1001)"></circle><circle r="25" cx="1405.9" cy="558.53" fill="url(#SvgjsRadialGradient1001)"></circle><circle r="5" cx="-77.06" cy="495.78" fill="#8b9ad9"></circle><circle r="5" cx="-107.44" cy="676.27" fill="#8b9ad9"></circle><circle r="5" cx="59.44" cy="495.75" fill="#8b9ad9"></circle><circle r="5" cx="194.35" cy="542.94" fill="#8b9ad9"></circle><circle r="5" cx="337.82" cy="533.92" fill="#8b9ad9"></circle><circle r="5" cx="389.03" cy="698.56" fill="#8b9ad9"></circle><circle r="5" cx="558.28" cy="545.45" fill="#8b9ad9"></circle><circle r="5" cx="546.69" cy="651.16" fill="#8b9ad9"></circle><circle r="5" cx="710.82" cy="532.23" fill="#8b9ad9"></circle><circle r="5" cx="649.89" cy="640.97" fill="#8b9ad9"></circle><circle r="5" cx="861.87" cy="384.5" fill="#8b9ad9"></circle><circle r="5" cx="853.06" cy="536.44" fill="#8b9ad9"></circle><circle r="5" cx="987.17" cy="487.78" fill="#8b9ad9"></circle><circle r="5" cx="984.98" cy="712.39" fill="#8b9ad9"></circle><circle r="5" cx="1144.79" cy="257.48" fill="#8b9ad9"></circle><circle r="5" cx="1113.43" cy="384.76" fill="#8b9ad9"></circle><circle r="5" cx="1114.91" cy="555.64" fill="#8b9ad9"></circle><circle r="5" cx="1116.94" cy="682.59" fill="#8b9ad9"></circle><circle r="5" cx="1286.87" cy="-107.22" fill="#8b9ad9"></circle><circle r="5" cx="1292.18" cy="379.36" fill="#8b9ad9"></circle><circle r="5" cx="1312.07" cy="506.81" fill="#8b9ad9"></circle><circle r="5" cx="1419.1" cy="-53.11" fill="#8b9ad9"></circle><circle r="5" cx="1389.71" cy="104.29" fill="#8b9ad9"></circle><circle r="5" cx="1403.5" cy="243.36" fill="#8b9ad9"></circle><circle r="5" cx="1413.43" cy="406.61" fill="#8b9ad9"></circle><circle r="5" cx="1400.8" cy="704.68" fill="#8b9ad9"></circle><circle r="5" cx="1544.36" cy="-69.7" fill="#8b9ad9"></circle><circle r="5" cx="1575.9" cy="41.22" fill="#8b9ad9"></circle><circle r="5" cx="1594.96" cy="192.37" fill="#8b9ad9"></circle><circle r="5" cx="1575.31" cy="370.82" fill="#8b9ad9"></circle><circle r="5" cx="1571.07" cy="542.09" fill="#8b9ad9"></circle><circle r="5" cx="1559.45" cy="647.94" fill="#8b9ad9"></circle></g><defs><mask id="SvgjsMask1000"><rect width="1440" height="560" fill="#ffffff"></rect></mask><radialGradient id="SvgjsRadialGradient1001"><stop stop-color="#ffffff" offset="0.1"></stop><stop stop-color="#1735b3" offset="0.2"></stop><stop stop-color="rgba(23, 53, 179, 0)" offset="1"></stop></radialGradient></defs></svg>